HIERARCHY
ROOT root
{
	OFFSET	0.00	0.00	0.00
	CHANNELS 6 Xposition Yposition Zposition Zrotation Xrotation Yrotation
	JOINT back
	{
		OFFSET	 0.352955	 0.000000	 0.000000
		CHANNELS 3 Zrotation Xrotation Yrotation
		JOINT chest
		{
			OFFSET	 0.264817	 0.004177	 0.000000
			CHANNELS 3 Zrotation Xrotation Yrotation
			JOINT l_clavicle
			{
				OFFSET	 0.114550	 0.000716	-0.065320
				CHANNELS 3 Zrotation Xrotation Yrotation
				JOINT l_end_clavicle
				{
					OFFSET	 0.162817	-0.003802	 0.000069
					CHANNELS 3 Zrotation Xrotation Yrotation
					JOINT l_shoulder
					{
						OFFSET	 0.000000	 0.000000	 0.000000
						CHANNELS 3 Zrotation Xrotation Yrotation
						JOINT l_forearm
						{
							OFFSET	 0.266368	 0.006912	-0.045869
							CHANNELS 3 Zrotation Xrotation Yrotation
							JOINT l_end_wrist
							{
								OFFSET	 0.317021	-0.006522	 0.006333
								CHANNELS 3 Zrotation Xrotation Yrotation
								JOINT l_index1
								{
									OFFSET	 0.152748	-0.021000	-0.014320
									CHANNELS 3 Zrotation Xrotation Yrotation
									JOINT l_index2
									{
										OFFSET	 0.039283	 0.000000	 0.000000
										CHANNELS 3 Zrotation Xrotation Yrotation
										JOINT l_index3
										{
											OFFSET	 0.038151	 0.000000	 0.000000
											CHANNELS 3 Zrotation Xrotation Yrotation
											End Site
											{
												OFFSET	 0.038151	 0.000000	 0.000000
											}
										}
									}
								}
								JOINT l_middle1
								{
									OFFSET	 0.151723	 0.016194	-0.014667
									CHANNELS 3 Zrotation Xrotation Yrotation
									JOINT l_middle_2
									{
										OFFSET	 0.038269	 0.000000	 0.000000
										CHANNELS 3 Zrotation Xrotation Yrotation
										JOINT l_middle_3
										{
											OFFSET	 0.039743	 0.000000	 0.000000
											CHANNELS 3 Zrotation Xrotation Yrotation
											End Site
											{
												OFFSET	 0.039743	 0.000000	 0.000000
											}
										}
									}
								}
								JOINT l_pinky1
								{
									OFFSET	 0.117088	 0.077397	-0.013819
									CHANNELS 3 Zrotation Xrotation Yrotation
									JOINT l_pinky2
									{
										OFFSET	 0.028938	 0.000000	 0.000000
										CHANNELS 3 Zrotation Xrotation Yrotation
										JOINT l_pinky3
										{
											OFFSET	 0.027080	 0.000000	 0.000000
											CHANNELS 3 Zrotation Xrotation Yrotation
											End Site
											{
												OFFSET	 0.027080	 0.000000	 0.000000
											}
										}
									}
								}
								JOINT l_ring1
								{
									OFFSET	 0.137788	 0.047650	-0.014135
									CHANNELS 3 Zrotation Xrotation Yrotation
									JOINT l_ring2
									{
										OFFSET	 0.030749	 0.000000	 0.000000
										CHANNELS 3 Zrotation Xrotation Yrotation
										JOINT l_ring3
										{
											OFFSET	 0.032711	 0.000000	 0.000000
											CHANNELS 3 Zrotation Xrotation Yrotation
											End Site
											{
												OFFSET	 0.032711	 0.000000	 0.000000
											}
										}
									}
								}
								JOINT l_thumb1
								{
									OFFSET	 0.054053	-0.036728	-0.011261
									CHANNELS 3 Zrotation Xrotation Yrotation
									JOINT l_thumb_2
									{
										OFFSET	 0.051141	-0.005593	-0.001180
										CHANNELS 3 Zrotation Xrotation Yrotation
										JOINT l_thumb_3
										{
											OFFSET	 0.046422	-0.001905	 0.000191
											CHANNELS 3 Zrotation Xrotation Yrotation
											End Site
											{
												OFFSET	 0.046422	-0.001905	 0.000191
											}
										}
									}
								}
							}
						}
					}
				}
			}
			JOINT neck
			{
				OFFSET	 0.143918	 0.000470	 0.000000
				CHANNELS 3 Zrotation Xrotation Yrotation
				JOINT head
				{
					OFFSET	 0.000000	-0.000205	 0.055236
					CHANNELS 3 Zrotation Xrotation Yrotation
					End Site
					{
						OFFSET	 0.000000	-0.000205	 0.055236
					}
				}
			}
			JOINT r_clavicle
			{
				OFFSET	 0.114552	 0.000716	 0.065320
				CHANNELS 3 Zrotation Xrotation Yrotation
				JOINT r_end_clavicle
				{
					OFFSET	-0.162817	 0.003801	-0.000067
					CHANNELS 3 Zrotation Xrotation Yrotation
					JOINT r_shoulder
					{
						OFFSET	 0.000000	 0.000000	 0.000000
						CHANNELS 3 Zrotation Xrotation Yrotation
						JOINT r_forearm
						{
							OFFSET	-0.266367	-0.006912	 0.045867
							CHANNELS 3 Zrotation Xrotation Yrotation
							JOINT r_end_wrist
							{
								OFFSET	-0.317022	 0.006522	-0.006331
								CHANNELS 3 Zrotation Xrotation Yrotation
								JOINT r_index1
								{
									OFFSET	-0.152748	 0.021000	 0.014322
									CHANNELS 3 Zrotation Xrotation Yrotation
									JOINT r_index2
									{
										OFFSET	-0.039280	 0.000000	-0.000001
										CHANNELS 3 Zrotation Xrotation Yrotation
										JOINT r_index3
										{
											OFFSET	-0.038152	 0.000000	-0.000001
											CHANNELS 3 Zrotation Xrotation Yrotation
											End Site
											{
												OFFSET	-0.038152	 0.000000	-0.000001
											}
										}
									}
								}
								JOINT r_middle1
								{
									OFFSET	-0.151722	-0.016194	 0.014664
									CHANNELS 3 Zrotation Xrotation Yrotation
									JOINT r_middle_2
									{
										OFFSET	-0.038270	 0.000000	 0.000003
										CHANNELS 3 Zrotation Xrotation Yrotation
										JOINT r_middle_3
										{
											OFFSET	-0.039744	 0.000000	 0.000000
											CHANNELS 3 Zrotation Xrotation Yrotation
											End Site
											{
												OFFSET	-0.039744	 0.000000	 0.000000
											}
										}
									}
								}
								JOINT r_pinky1
								{
									OFFSET	-0.117090	-0.077397	 0.013818
									CHANNELS 3 Zrotation Xrotation Yrotation
									JOINT r_pinky2
									{
										OFFSET	-0.028938	 0.000000	 0.000000
										CHANNELS 3 Zrotation Xrotation Yrotation
										JOINT r_pinky3
										{
											OFFSET	-0.027079	-0.000001	 0.000000
											CHANNELS 3 Zrotation Xrotation Yrotation
											End Site
											{
												OFFSET	-0.027079	-0.000001	 0.000000
											}
										}
									}
								}
								JOINT r_ring1
								{
									OFFSET	-0.137790	-0.047650	 0.014136
									CHANNELS 3 Zrotation Xrotation Yrotation
									JOINT r_ring2
									{
										OFFSET	-0.030748	 0.000000	-0.000001
										CHANNELS 3 Zrotation Xrotation Yrotation
										JOINT r_ring3
										{
											OFFSET	-0.032707	-0.000001	 0.000003
											CHANNELS 3 Zrotation Xrotation Yrotation
											End Site
											{
												OFFSET	-0.032707	-0.000001	 0.000003
											}
										}
									}
								}
								JOINT r_thumb1
								{
									OFFSET	-0.054054	 0.036728	 0.011262
									CHANNELS 3 Zrotation Xrotation Yrotation
									JOINT r_thumb_2
									{
										OFFSET	-0.051140	 0.005594	 0.001177
										CHANNELS 3 Zrotation Xrotation Yrotation
										JOINT r_thumb_3
										{
											OFFSET	-0.046419	 0.001906	-0.000190
											CHANNELS 3 Zrotation Xrotation Yrotation
											End Site
											{
												OFFSET	-0.046419	 0.001906	-0.000190
											}
										}
									}
								}
							}
						}
					}
				}
			}
		}
	}
	JOINT Pelvis
	{
		OFFSET	 0.000000	 0.000000	 0.000000
		CHANNELS 3 Zrotation Xrotation Yrotation
		JOINT l_thigh
		{
			OFFSET	-0.000001	-0.129194	 0.000000
			CHANNELS 3 Zrotation Xrotation Yrotation
			End Site
			{
				OFFSET	-0.000001	-0.129194	 0.000000
			}
		}
		JOINT r_thigh
		{
			OFFSET	 0.000001	 0.129194	 0.000000
			CHANNELS 3 Zrotation Xrotation Yrotation
			End Site
			{
				OFFSET	 0.000001	 0.129194	 0.000000
			}
		}
	}
}
MOTION
Frames:    4
Frame Time: 0.01666667
-0.081818	-0.124812	 0.009334	-151.990200	 2.437967	-97.146830	-6.777079	-4.615096	-2.336397	-6.573795	-12.306110	-2.181537	 1.077635	-4.964149	 105.894100	-0.813313	 0.122417	-8.559153	-9.080124	 12.253790	 59.069210	-122.126100	 22.362500	 7.744564	 39.531250	 17.334180	-35.206710	-11.701570	-4.668733	 49.481700	 2.466034	-1.147567	 53.408100	 2.739605	 0.675539	-52.364350	-0.407929	 1.233171	 40.141450	-0.238650	 3.158348	 22.023660	 2.705809	 4.929979	-61.502930	 36.745180	 19.457240	 19.543310	-6.692575	 19.242860	 17.898250	-5.693412	 19.250650	-72.905690	 17.601030	 9.861604	 30.442810	-3.779712	 9.429661	 23.296210	-0.507275	 10.274990	-65.468890	-51.617550	-12.041010	-7.588076	 16.022730	-0.540169	 0.139211	 14.789960	-0.368235	 3.437935	 0.500619	-1.760686	 89.963810	-95.585590	-9.639312	-99.173610	 179.338500	 2.561137	 108.641100	-0.813313	 0.122417	-8.559153	 6.616066	 16.795460	 53.139980	-76.844730	-37.423300	-1.376196	-5.856789	-36.799390	-4.591826	-5.389565	-1.959184	 10.284850	 2.503150	-1.127166	 4.758202	 3.271834	-0.653379	-80.256610	 4.308466	 3.325971	 11.921770	-0.274266	 3.148211	 9.546992	 2.920942	 4.272257	-71.270380	 38.055180	 20.036220	 14.413410	-6.817923	 19.213330	 11.087400	-5.663226	 19.248220	-71.409020	 18.928310	 10.633620	 20.723410	-3.897115	 9.396124	 9.763649	-0.473584	 9.962528	-72.719700	-39.166740	-3.421221	 28.486230	-2.305317	-0.484617	-0.010154	 4.415875	-0.325463	 3.354072	 0.000000	 90.000000	 0.000000	-172.362400	-3.426656	 171.994700	-152.196200	-3.929756	-18.084590
-0.082168	-0.124987	 0.010029	-152.107000	 2.477191	-97.194140	-6.822037	-4.637302	-2.347067	-6.625207	-12.396000	-2.191667	 1.063073	-4.896994	 105.894300	-0.813313	 0.122417	-8.559153	-9.013423	 12.429890	 59.083890	-122.076800	 22.356900	 7.776183	 39.409800	 17.355660	-35.254180	-11.701570	-4.668738	 49.483810	 2.466033	-1.147568	 53.409110	 2.739605	 0.675539	-52.364350	-0.411024	 1.230766	 40.143030	-0.238648	 3.158349	 22.024470	 2.705336	 4.931094	-61.485850	 36.726650	 19.449320	 19.560070	-6.692549	 19.242870	 17.899670	-5.692908	 19.250600	-72.880800	 17.590570	 9.855052	 30.447760	-3.779694	 9.429669	 23.298500	-0.507350	 10.275410	-65.458900	-51.617550	-12.041010	-7.588076	 16.022730	-0.540169	 0.139211	 14.789960	-0.368235	 3.437935	 0.498845	-1.848115	 89.963090	-95.685690	-9.485864	-99.168160	 179.358700	 2.416220	 109.018700	-0.813313	 0.122417	-8.559153	 4.467270	 14.974770	 53.664730	-66.223660	-36.322520	-0.451721	-5.652429	-35.449780	-5.366878	-5.360563	-1.939127	 10.402130	 2.503081	-1.127172	 4.836042	 3.272333	-0.657000	-80.327130	 4.371309	 3.354565	 11.940940	-0.273800	 3.148290	 9.705899	 2.922073	 4.267425	-71.340320	 38.091640	 20.049460	 14.385830	-6.815954	 19.213690	 11.193170	-5.668844	 19.248740	-71.684600	 18.962790	 10.650450	 20.592940	-3.896363	 9.396249	 9.848121	-0.473626	 9.963461	-72.698210	-39.100900	-3.394762	 28.490850	-1.809492	-0.486735	-0.006378	 4.415875	-0.325463	 3.354072	 0.000000	 90.000000	 0.000000	-172.298500	-3.388741	 172.008800	-152.168600	-3.913143	-18.167170
-0.082422	-0.125076	 0.010635	-152.222300	 2.515733	-97.224930	-6.859793	-4.656058	-2.353780	-6.668321	-12.470270	-2.198133	 1.050331	-4.838100	 105.895500	-0.813313	 0.122417	-8.559153	-8.965260	 12.586960	 59.135960	-122.025600	 22.355370	 7.808212	 39.320940	 17.367120	-35.316440	-11.701580	-4.668744	 49.485640	 2.466032	-1.147568	 53.410050	 2.739605	 0.675539	-52.364350	-0.414136	 1.228347	 40.144480	-0.238646	 3.158350	 22.025280	 2.704859	 4.932210	-61.468710	 36.708320	 19.441540	 19.574330	-6.692526	 19.242870	 17.900940	-5.692402	 19.250540	-72.855950	 17.580270	 9.848609	 30.452280	-3.779676	 9.429676	 23.300540	-0.507423	 10.275830	-65.449100	-51.617550	-12.041010	-7.588076	 16.022730	-0.540169	 0.139211	 14.789960	-0.368235	 3.437935	 0.497267	-1.938435	 89.962500	-95.782510	-9.344015	-99.190490	 179.377500	 2.298350	 109.282200	-0.813313	 0.122417	-8.559153	 2.327359	 12.883790	 54.337300	-56.037160	-34.927360	 0.213903	-5.445961	-34.009860	-5.479943	-5.304161	-1.906688	 10.527120	 2.502992	-1.127178	 4.935561	 3.272903	-0.661178	-80.408460	 4.478095	 3.402369	 11.956680	-0.273304	 3.148376	 9.875099	 2.924468	 4.257105	-71.489620	 38.197620	 20.087900	 14.293500	-6.814054	 19.214040	 11.295240	-5.675173	 19.249340	-71.995450	 19.045310	 10.691310	 20.437000	-3.895413	 9.396411	 9.955046	-0.473515	 9.960955	-72.755940	-39.049750	-3.374201	 28.494420	-1.424351	-0.488372	-0.003437	 4.415875	-0.325463	 3.354072	 0.000000	 90.000000	 0.000000	-172.248700	-3.354209	 172.029900	-152.150400	-3.894886	-18.228140
-0.082666	-0.125145	 0.011220	-152.344200	 2.557762	-97.249060	-6.896949	-4.674693	-2.356959	-6.710353	-12.542060	-2.201200	 1.037430	-4.778315	 105.898000	-0.813313	 0.122417	-8.559153	-8.924690	 12.747080	 59.215080	-121.965500	 22.356610	 7.844274	 39.267940	 17.363450	-35.404610	-11.701580	-4.668749	 49.487490	 2.466032	-1.147569	 53.411020	 2.739605	 0.675539	-52.364350	-0.417730	 1.225553	 40.146020	-0.238643	 3.158351	 22.026180	 2.704314	 4.933495	-61.449050	 36.687440	 19.432710	 19.588500	-6.692502	 19.242880	 17.902240	-5.691822	 19.250480	-72.827370	 17.568550	 9.841279	 30.457170	-3.779660	 9.429686	 23.302660	-0.507508	 10.276310	-65.437970	-51.617550	-12.041010	-7.588076	 16.022730	-0.540169	 0.139211	 14.789960	-0.368235	 3.437935	 0.495625	-2.042179	 89.961950	-95.889290	-9.199440	-99.236690	 179.392100	 2.203980	 109.518000	-0.813313	 0.122417	-8.559153	 0.023035	 10.158820	 54.954110	-44.908260	-33.346710	 0.642479	-5.300899	-32.459130	-5.106537	-5.234148	-1.856057	 10.834410	 2.502705	-1.127202	 5.256031	 3.273541	-0.665910	-80.500580	 4.687245	 3.495660	 11.979040	-0.271976	 3.148614	 10.328600	 2.928092	 4.241249	-71.718830	 38.348830	 20.142430	 14.158330	-6.808896	 19.215010	 11.572580	-5.682517	 19.250100	-72.356460	 19.172630	 10.754190	 20.245950	-3.892432	 9.396921	 10.290320	-0.473379	 9.957793	-72.828810	-39.003900	-3.355759	 28.497590	-1.079208	-0.489809	-0.000787	 4.415875	-0.325463	 3.354072	 0.000000	 90.000000	 0.000000	-172.203600	-3.316860	 172.070500	-152.136800	-3.874398	-18.282450
